<svg xmlns="http://www.w3.org/2000/svg" viewBox="0 0 72.253 71.12">
  <g transform="translate(5.962 -50.2)">
    <circle cx="8.539" cy="8.539" r="8.539" transform="translate(-2.128 85.921)" fill="#FF8272"/>
    <path d="M72.291,38.236h0v-.107c0-.053,0-.053-.053-.107a.052.052,0,0,0-.054-.053.187.187,0,0,0-.053-.107.052.052,0,0,0-.054-.053c-.054-.053-.054-.107-.107-.107h0c-.054-.053-.107-.053-.16-.107h0c-.053-.053-.107-.053-.16-.107h0a1.583,1.583,0,0,0-.535-.107L31.206,41.125,39.07,18.442l-3.317-1.551L28.906,31.923h0a1.562,1.562,0,0,0-.107.481,15.723,15.723,0,0,0,1.5,4.815l-1.391,4.012L13.82,42.676a6.959,6.959,0,0,0-4.975-8.559A6.78,6.78,0,0,0,7.026,33.9a2.6,2.6,0,0,0-.642.053,6.937,6.937,0,0,0-6.313,7.6,7.022,7.022,0,0,0,6.955,6.366,2.6,2.6,0,0,0,.642-.054,7.162,7.162,0,0,0,5.082-2.942L28.1,43.478l-4.922,14.39a6.995,6.995,0,1,0,2.568-.481v2.14A4.868,4.868,0,1,1,20.881,64.4a5.6,5.6,0,0,1,.267-1.6,4.886,4.886,0,0,1,4.6-3.317v-2.14h-.16l4.868-14.176,4.066-.374a16.651,16.651,0,0,0,4.333,2.568h.428l32.044-6.045a.992.992,0,0,0,.642-.374h0c.053-.054.053-.107.107-.16h0c0-.053.054-.107.054-.16v-.053a.2.2,0,0,1,.053-.16v-.16c.107.053.107.053.107,0ZM10.824,44.013a4.977,4.977,0,0,1-3.317,1.765H7.026a4.9,4.9,0,0,1-4.868-4.922,4.83,4.83,0,0,1,4.387-4.815h.481a4.886,4.886,0,0,1,4.868,4.868A4.762,4.762,0,0,1,10.824,44.013Zm24.02-19.954-3.477,10a7.674,7.674,0,0,1-.374-1.5ZM39.23,43.318c-.481-.214-.909-.481-1.391-.749l10.539-1.016ZM28.959,1.591a1.043,1.043,0,0,1-.053-.7h0c0-.053.053-.107.053-.16h0c0-.053.053-.107.107-.16A.052.052,0,0,1,29.12.521l.107-.107L29.28.36c.053-.053.053-.053.107-.053a.052.052,0,0,0,.053-.053c0-.053.053,0,.053,0H29.6c.054,0,.054-.053.107-.053h.481a.2.2,0,0,1,.16.053h0c.053,0,.107.053.16.107h0a1.25,1.25,0,0,1,.374.374L39.07,14.858l-3.317,1.5Z" transform="translate(-6 50)"/>
  </g>
</svg>
