<svg xmlns="http://www.w3.org/2000/svg" viewBox="0 0 58.669 60.432">
  <g transform="translate(-827.019 -185.592) rotate(-7)">
    <circle cx="12.132" cy="12.132" r="12.132" transform="translate(825.602 321.656)" fill="#FF8272"/>
    <path d="M-91.873,31.331a14,14,0,0,0-14,14,14,14,0,0,0,14,14,14,14,0,0,0,14-14A14,14,0,0,0-91.873,31.331Zm0,25.886a11.9,11.9,0,0,1-11.883-11.883A11.9,11.9,0,0,1-91.873,33.451,11.9,11.9,0,0,1-79.99,45.334,11.9,11.9,0,0,1-91.873,57.217Zm4.113-8.385a1.06,1.06,0,0,1,0,1.5,1.06,1.06,0,0,1-1.5,0l-3.516-3.516a1.057,1.057,0,0,1-.31-.752V39.646a1.06,1.06,0,0,1,1.06-1.06,1.06,1.06,0,0,1,1.06,1.06v5.981Zm-21.3,2.78h-13.959a2.37,2.37,0,0,1-2.37-2.37V20.1h39.746v8.049a1.06,1.06,0,0,0,1.06,1.06,1.06,1.06,0,0,0,1.06-1.06V19.042h0V14.285a4.537,4.537,0,0,0-4.537-4.537h-5.491V5.666A1.1,1.1,0,0,0-94.5,4.551a1.06,1.06,0,0,0-.819.267,1.06,1.06,0,0,0-.35.787V9.746h-19.655V5.666a1.1,1.1,0,0,0-.951-1.115,1.06,1.06,0,0,0-.819.267,1.06,1.06,0,0,0-.35.787V9.746h-5.571a4.49,4.49,0,0,0-4.49,4.49V49.242a4.49,4.49,0,0,0,4.49,4.49h13.959a1.06,1.06,0,0,0,1.06-1.06,1.06,1.06,0,0,0-1.06-1.06Zm-16.329-37.376a2.37,2.37,0,0,1,2.37-2.37h34.957a2.417,2.417,0,0,1,2.417,2.417v3.7h-39.746Z" transform="translate(925.006 286.455)"/>
  </g>
</svg>
