<svg xmlns="http://www.w3.org/2000/svg" viewBox="0 0 57.651 52.559">
  <g transform="translate(-1272.489 -636.852)">
    <rect width="27.202" height="18.832" transform="translate(1303.438 646.949) rotate(11)" fill="#FF8272"/>
    <path d="M17.739,8.87H29.565V2.956H17.739V8.869Zm-2.957,0V1.478A1.478,1.478,0,0,1,16.261,0H31.043a1.478,1.478,0,0,1,1.478,1.478V8.87H42.869A4.435,4.435,0,0,1,47.3,13.3V28.087a1.478,1.478,0,0,1-1.478,1.478H1.478A1.478,1.478,0,0,1,0,28.087V13.3A4.435,4.435,0,0,1,4.435,8.87ZM44.348,26.609V13.3a1.478,1.478,0,0,0-1.478-1.478H4.435A1.478,1.478,0,0,0,2.957,13.3v13.3ZM41.391,34a1.478,1.478,0,1,1,2.956,0v5.913a4.435,4.435,0,0,1-4.435,4.435H7.391a4.435,4.435,0,0,1-4.435-4.435V34a1.478,1.478,0,0,1,2.957,0v5.913a1.478,1.478,0,0,0,1.478,1.478H39.913a1.478,1.478,0,0,0,1.478-1.478V34Z" transform="translate(1280.951 636.852) rotate(11)"/>
  </g>
</svg>
