<svg viewBox="0 0 22 18" xmlns="http://www.w3.org/2000/svg">
<path d="M11 3.97266C13.5352 3.97266 15.5977 5.99219 15.5977 8.52734C15.5977 9 15.5117 9.47266 15.3828 9.85938L18.1758 12.6953C19.4219 11.5781 20.4531 10.1602 21.0977 8.52734C19.5078 4.53125 15.5977 1.65234 11 1.65234C9.83984 1.65234 8.72266 1.86719 7.64844 2.16797L9.66797 4.1875C10.0977 4.05859 10.5273 3.97266 11 3.97266ZM2.49219 0.878906C2.10547 1.26562 2.10547 1.82422 2.49219 2.16797L4.29688 4.01562C2.79297 5.17578 1.63281 6.72266 0.902344 8.52734C2.49219 12.5664 6.40234 15.4023 11 15.4023C12.375 15.4023 13.707 15.1445 14.9531 14.6719L17.4453 17.1641C17.7891 17.5078 18.3906 17.5078 18.7344 17.1641C19.0781 16.8203 19.0781 16.2188 18.7344 15.875L3.78125 0.878906C3.4375 0.535156 2.83594 0.535156 2.49219 0.878906ZM11 13.125C8.46484 13.125 6.40234 11.0625 6.40234 8.52734C6.40234 7.83984 6.57422 7.15234 6.875 6.59375L8.29297 8.01172C8.29297 8.18359 8.25 8.35547 8.25 8.52734C8.25 10.0742 9.49609 11.2773 11 11.2773C11.1719 11.2773 11.3438 11.2773 11.5156 11.2344L12.9766 12.6523C12.375 12.9531 11.6875 13.125 11 13.125ZM13.707 8.22656C13.5781 6.9375 12.5898 5.94922 11.3008 5.82031L13.707 8.22656Z"/>
</svg>
