<svg viewBox="0 0 22 14" xmlns="http://www.w3.org/2000/svg">
<path d="M11 0.125C6.40234 0.125 2.49219 2.96094 0.902344 7C2.49219 11.0391 6.40234 13.875 11 13.875C15.5977 13.875 19.5078 11.0391 21.0977 7C19.5078 2.96094 15.5977 0.125 11 0.125ZM11 11.5977C8.46484 11.5977 6.40234 9.53516 6.40234 7C6.40234 4.46484 8.46484 2.40234 11 2.40234C13.5352 2.40234 15.5977 4.46484 15.5977 7C15.5977 9.53516 13.5352 11.5977 11 11.5977ZM11 4.25C9.49609 4.25 8.25 5.49609 8.25 7C8.25 8.50391 9.49609 9.75 11 9.75C12.5039 9.75 13.75 8.50391 13.75 7C13.75 5.49609 12.5039 4.25 11 4.25Z" />
</svg>
