<svg viewBox="0 0 18 18" xmlns="http://www.w3.org/2000/svg">
    <path
        d="M8.99935 13.166C10.1521 13.166 11.1349 12.7596 11.9477 11.9468C12.7599 11.1346 13.166 10.1521 13.166 8.99935C13.166 7.84657 12.7599 6.86379 11.9477 6.05102C11.1349 5.23879 10.1521 4.83268 8.99935 4.83268C7.84657 4.83268 6.86407 5.23879 6.05185 6.05102C5.23907 6.86379 4.83268 7.84657 4.83268 8.99935C4.83268 10.1521 5.23907 11.1346 6.05185 11.9468C6.86407 12.7596 7.84657 13.166 8.99935 13.166ZM8.99935 17.3327C7.84657 17.3327 6.76324 17.1138 5.74935 16.676C4.73546 16.2388 3.85352 15.6452 3.10352 14.8952C2.35352 14.1452 1.7599 13.2632 1.32268 12.2493C0.884905 11.2355 0.666016 10.1521 0.666016 8.99935C0.666016 7.84657 0.884905 6.76324 1.32268 5.74935C1.7599 4.73546 2.35352 3.85352 3.10352 3.10352C3.85352 2.35352 4.73546 1.75963 5.74935 1.32185C6.76324 0.884627 7.84657 0.666016 8.99935 0.666016C10.1521 0.666016 11.2355 0.884627 12.2493 1.32185C13.2632 1.75963 14.1452 2.35352 14.8952 3.10352C15.6452 3.85352 16.2388 4.73546 16.676 5.74935C17.1138 6.76324 17.3327 7.84657 17.3327 8.99935C17.3327 10.1521 17.1138 11.2355 16.676 12.2493C16.2388 13.2632 15.6452 14.1452 14.8952 14.8952C14.1452 15.6452 13.2632 16.2388 12.2493 16.676C11.2355 17.1138 10.1521 17.3327 8.99935 17.3327ZM8.99935 15.666C10.8605 15.666 12.4368 15.0202 13.7285 13.7285C15.0202 12.4368 15.666 10.8605 15.666 8.99935C15.666 7.13824 15.0202 5.56185 13.7285 4.27018C12.4368 2.97852 10.8605 2.33268 8.99935 2.33268C7.13824 2.33268 5.56185 2.97852 4.27018 4.27018C2.97852 5.56185 2.33268 7.13824 2.33268 8.99935C2.33268 10.8605 2.97852 12.4368 4.27018 13.7285C5.56185 15.0202 7.13824 15.666 8.99935 15.666Z" />
</svg>