<svg viewBox="0 0 14 14" xmlns="http://www.w3.org/2000/svg">
<path d="M7.46129 0.7199L9.22523 4.22715C9.26179 4.30155 9.31631 4.36604 9.38405 4.41505C9.45179 4.46405 9.53072 4.4961 9.61395 4.50835L13.5573 5.07069C13.6528 5.08424 13.7425 5.12377 13.8162 5.18476C13.89 5.24575 13.9449 5.32579 13.9747 5.41582C14.0045 5.50584 14.0081 5.60226 13.9849 5.69416C13.9618 5.78606 13.9129 5.86975 13.8438 5.9358L10.9892 8.66609C10.9293 8.72354 10.8845 8.79442 10.8587 8.87263C10.8329 8.95084 10.8269 9.03401 10.8412 9.11502L11.5145 12.97C11.5307 13.0632 11.52 13.1591 11.4837 13.2467C11.4473 13.3343 11.3867 13.4102 11.3088 13.4657C11.2308 13.5213 11.1385 13.5544 11.0424 13.5612C10.9462 13.568 10.8501 13.5483 10.7648 13.5043L7.2378 11.6841C7.16408 11.6464 7.08218 11.6267 6.99904 11.6267C6.91591 11.6267 6.83401 11.6464 6.76028 11.6841L3.23333 13.5043C3.14802 13.5483 3.05185 13.568 2.95572 13.5612C2.85959 13.5544 2.76732 13.5213 2.68933 13.4657C2.61134 13.4102 2.55075 13.3343 2.5144 13.2467C2.47805 13.1591 2.46739 13.0632 2.48362 12.97L3.15787 9.11502C3.17213 9.03401 3.16612 8.95084 3.14033 8.87263C3.11454 8.79442 3.06975 8.72354 3.00984 8.66609L0.156182 5.9358C0.0870801 5.86975 0.0382211 5.78606 0.0150883 5.69416C-0.00804443 5.60226 -0.00452637 5.50584 0.0252893 5.41582C0.0551049 5.32579 0.110014 5.24575 0.183782 5.18476C0.25755 5.12377 0.347248 5.08424 0.442711 5.07069L4.38606 4.50835C4.46929 4.4961 4.54819 4.46405 4.61593 4.41505C4.68368 4.36604 4.73819 4.30155 4.77475 4.22715L6.53872 0.7199C6.58141 0.635122 6.64742 0.563745 6.72927 0.513842C6.81112 0.463939 6.90554 0.4375 7.0019 0.4375C7.09826 0.4375 7.19271 0.463939 7.27456 0.513842C7.35641 0.563745 7.42242 0.635122 7.46511 0.7199H7.46129Z"/>
</svg>
